<svg id="圖層_1" data-name="圖層 1" xmlns="http://www.w3.org/2000/svg" viewBox="0 0 108.32 25.35"><defs><style>.cls-1{fill:#FFF}</style></defs><g id="Group_4" data-name="Group 4"><g id="Group_1" data-name="Group 1"><path id="Path_20" data-name="Path 20" class="cls-1" d="M18.83,10.74v3.52H4.91V9.43H17.15c1.78,0,1.68,1.31,1.68,1.31m-2.7,1.88V11.14H7.43v1.48Z"/><path id="Path_21" data-name="Path 21" class="cls-1" d="M2.31,23.79V15.27H19.58a2.08,2.08,0,0,1,.84.24,1.93,1.93,0,0,1,1.1,1.64v6.64h-2.9v-.58H5.2v.58H2.31m16.32-5.43V17.2H13.24v1.16h5.39m-8,0V17.21H5.21v1.16h5.38m8,2.95V20.17H13.24v1.15h5.39m-8,0V20.17H5.21v1.16Z"/><rect id="Rectangle_16" data-name="Rectangle 16" class="cls-1" x="4.9" y="6.69" width="13.93" height="1.82"/><path id="Path_22" data-name="Path 22" class="cls-1" d="M1.24,9V3.37h9.23V1.93h2.79V3.28h7.28S22.4,3.42,22.4,5V9H19.87V5.76H3.92V9Z"/></g><g id="Group_2" data-name="Group 2"><path id="Path_23" data-name="Path 23" class="cls-1" d="M48.5,10.13l1.76-5.82A1.59,1.59,0,0,0,49,2.44a1.43,1.43,0,0,0-.29,0H41.34V23.86H44V20s.8,1.2,1.24,1.8a4.36,4.36,0,0,0,2.12-.53,5.93,5.93,0,0,0,3.21-4.5,9.24,9.24,0,0,0-2.1-6.62M47.88,17a3.87,3.87,0,0,1-2.33,2.25,2.89,2.89,0,0,1-1.57.06V5.07h3.43c-.51,1.85-1.16,3.78-1.74,5.6.18.34.58.65.79,1,1,1.54,2,3.3,1.42,5.28Z"/><path id="Path_24" data-name="Path 24" class="cls-1" d="M40.42,11.92V9.15H36.56V7.05h3.77V4.39H36.56V1.88H33.65v2.5H29.26V7.1h4.39V9.17H29.26v2.71h4.39v2H29.32v2.77h4.21a7.54,7.54,0,0,1-2.63,5.06l1.59,2.12c3.92-2.19,4.1-7.16,4.1-7.16h3.83V13.9H36.56v-2Z"/></g><g id="Group_3" data-name="Group 3"><path id="Path_25" data-name="Path 25" class="cls-1" d="M94.74,4.86H86.67V6.5h18.79V4.86H97.34v-.8h8.93V2.42H97.34v-.7H94.75v.7H85.92V4.06h8.83Z"/><path id="Path_26" data-name="Path 26" class="cls-1" d="M106.48,7.38a2.15,2.15,0,0,0-1-.19H86.11V8.85H104a.94.94,0,0,1,.5.11c.18.13.15.46.15.46v1.66h2.15v-3A.94.94,0,0,0,106.48,7.38Z"/><path id="Path_27" data-name="Path 27" class="cls-1" d="M86.13,12.15v1.61h19V12.15H97.33v-.83h5.74V9.64h-15v1.68h6.66v.83Z"/><path id="Path_28" data-name="Path 28" class="cls-1" d="M85.58,16.3h16v1.21H96.09v1.74h5.52V21.5c0,.79-1.6.89-2.58.83l1,1.94c.94,0,2.89-.2,3.83-1.19.49-.5.36-1.56.36-3.83h2V17.51h-2V16.3h2.63V14.6H85.58Z"/><path id="Path_29" data-name="Path 29" class="cls-1" d="M94.28,16.93H87v6.19h2.19v-.56h3.66v.56h2.19V17.73a.85.85,0,0,0-.21-.64,1,1,0,0,0-.57-.16m-1.4,2.33v1.62H89.21V18.67H92.4a.64.64,0,0,1,.38.22.69.69,0,0,1,.1.37Z"/><path id="Path_30" data-name="Path 30" class="cls-1" d="M97.41,19.61l-1.6,1.29L97.51,23l1.6-1.29Z"/></g><path id="Path_3" data-name="Path 3" class="cls-1" d="M67.76,11.91a29.15,29.15,0,0,1-1.07,2.73,21.49,21.49,0,0,1-8.44,9.1l-2-2.1a18,18,0,0,0,4.58-3.37q5.59-5.65,5.6-15V2.12H69.3s0,.68-.07,1.15c0,.76-.06,2,0,2.06a23.48,23.48,0,0,0,.73,4.93q2,6.4,9.5,11.72L77,23.82c-1.18-1-2.18-1.84-3-2.6A23.82,23.82,0,0,1,67.76,11.91Z"/></g></svg>