<svg xmlns="http://www.w3.org/2000/svg" xmlns:xlink="http://www.w3.org/1999/xlink" width="135" height="28" viewBox="0 0 135 28">
  <defs>
    <clipPath id="clip-path">
      <rect id="Rectangle_6513" data-name="Rectangle 6513" width="135" height="32" transform="translate(0 0.062)"/>
    </clipPath>
    <clipPath id="clip-image_logo">
      <rect width="135" height="28"/>
    </clipPath>
  </defs>
  <g id="image_logo" clip-path="url(#clip-image_logo)">
    <g id="Image_IDLogo" transform="translate(0 -2.062)" clip-path="url(#clip-path)">
      <g id="Group_2412" data-name="Group 2412" transform="translate(0.203 0.249)">
        <g id="Group_2197" data-name="Group 2197" transform="translate(-0.203 1.813)">
          <path id="Path_958" data-name="Path 958" d="M88.673,209.479c-.014.007.014,0,0,0s0,.08.241.246a5.223,5.223,0,0,1,2.33,4.731,5.371,5.371,0,0,1-5.625,5.091v4.076c5.2,0,9.919-3.6,9.919-8.751a8.955,8.955,0,0,0-1.805-5.421,5.659,5.659,0,0,0,.567-.783c.317-.547.377-1.211.377-3.429v-9.611H81.347v7.66H77.1V207.5h8.591v-7.565h4.795v6.522a3.335,3.335,0,0,1-1.815,3.024" transform="translate(-67.877 -195.624)" fill="#008f8a"/>
          <path id="Path_959" data-name="Path 959" d="M36.573,195.626H35.336a8.514,8.514,0,0,0-6.2,2.5c-1.663,1.844-1.821,3.481-1.821,6.179v19.308H40.846v-7.58h4.283v-4.258H36.535v7.639H31.617v-16s-.317-3.476,3.971-3.572l.981-.045Z" transform="translate(-27.31 -195.624)" fill="#007fbc"/>
        </g>
        <g id="Group_2201" data-name="Group 2201" transform="translate(35.164 8.39)">
          <g id="Group_2198" data-name="Group 2198" transform="translate(0 0.19)">
            <path id="Path_960" data-name="Path 960" d="M256.268,278.206v3.3l-13.137.012v-4.537H254.68c1.683,0,1.588,1.229,1.588,1.229m-2.551,1.761v-1.389H245.51v1.389Z" transform="translate(-239.674 -269.951)" fill="#1a1311"/>
            <path id="Path_961" data-name="Path 961" d="M229.789,314.931v-7.993h16.294a2,2,0,0,1,.795.228,1.793,1.793,0,0,1,1.039,1.533v6.224h-2.731v-.548H232.514v.551H229.79m15.4-5.086v-1.086h-5.079v1.086h5.079m-7.585,0v-1.086h-5.075v1.086H237.6m7.585,2.777v-1.083h-5.079v1.083h5.079m-7.585.009V311.54h-5.075v1.086Z" transform="translate(-228.785 -294.449)" fill="#1a1311"/>
            <rect id="Rectangle_3525" data-name="Rectangle 3525" width="13.147" height="1.703" transform="translate(3.447 4.458)" fill="#1a1311"/>
            <path id="Path_962" data-name="Path 962" d="M224.326,245.087v-5.232h8.7V238.5h2.635v1.269h6.869s1.756.131,1.756,1.588v3.729H241.9v-2.994H226.854v2.994Z" transform="translate(-224.326 -238.5)" fill="#1a1311"/>
          </g>
          <g id="Group_2199" data-name="Group 2199" transform="translate(26.435 0.144)">
            <path id="Path_963" data-name="Path 963" d="M436.818,248.213l1.666-5.46a1.48,1.48,0,0,0-.308-1.227,1.5,1.5,0,0,0-1.148-.548h-6.963v20.1H432.6v-3.633s.758,1.122,1.171,1.683a4.172,4.172,0,0,0,2.007-.5,5.558,5.558,0,0,0,3.027-4.214,8.611,8.611,0,0,0-1.978-6.194m-.577,6.4a3.631,3.631,0,0,1-2.2,2.11,2.79,2.79,0,0,1-1.483.06V243.468h3.236c-.485,1.735-1.095,3.542-1.639,5.249.171.317.544.606.742.955a6.082,6.082,0,0,1,1.334,4.944Z" transform="translate(-418.669 -240.479)" fill="#1a1311"/>
            <path id="Path_964" data-name="Path 964" d="M378.626,247.65v-2.6H374.99v-1.972h3.555v-2.492h-3.551V238.24h-2.752v2.347H368.1v2.549h4.141v1.931H368.1v2.54h4.145v1.9h-4.087v2.6h3.968a7.038,7.038,0,0,1-2.478,4.745l1.5,1.985c3.7-2.049,3.869-6.71,3.869-6.71h3.608v-2.616h-3.633v-1.859Z" transform="translate(-368.1 -238.24)" fill="#1a1311"/>
          </g>
          <g id="Group_2200" data-name="Group 2200" transform="translate(79.574 0)">
            <path id="Path_965" data-name="Path 965" d="M667.172,240.393h-7.611v1.542h17.721v-1.542h-7.67v-.751h8.431V238.11h-8.431v-.651h-2.444v.651h-8.326v1.532h8.326Z" transform="translate(-658.525 -237.459)" fill="#1a1311"/>
            <path id="Path_966" data-name="Path 966" d="M679.033,265.678a1.943,1.943,0,0,0-.945-.179H659.81v1.556h16.922a.821.821,0,0,1,.47.1c.164.119.138.424.138.424v1.551h2.027v-2.793A.844.844,0,0,0,679.033,265.678Z" transform="translate(-659.31 -260.378)" fill="#1a1311"/>
            <path id="Path_967" data-name="Path 967" d="M659.935,280.416v1.516h17.938v-1.516H670.5v-.777h5.416v-1.571H661.772v1.571h6.294v.777Z" transform="translate(-659.413 -270.652)" fill="#1a1311"/>
            <path id="Path_968" data-name="Path 968" d="M657.086,305.112h15.129v1.138H667v1.628h5.212v2.107c0,.741-1.512.837-2.436.777l.932,1.822a5.549,5.549,0,0,0,3.617-1.118c.455-.471.337-1.465.337-3.591H676.5V306.25h-1.83v-1.138h2.475v-1.587H657.093Z" transform="translate(-657.086 -291.463)" fill="#1a1311"/>
            <path id="Path_969" data-name="Path 969" d="M671.335,315.464H664.48v5.8h2.071v-.529H670v.529h2.07V316.22a.766.766,0,0,0-.2-.6.893.893,0,0,0-.53-.157m-1.326,2.189v1.513h-3.457v-2.072h3.008a.674.674,0,0,1,.36.2.617.617,0,0,1,.089.357Z" transform="translate(-663.12 -301.223)" fill="#1a1311"/>
            <path id="Path_970" data-name="Path 970" d="M711.118,329.242l-1.509,1.2,1.6,2,1.506-1.2Z" transform="translate(-699.951 -312.485)" fill="#1a1311"/>
          </g>
          <path id="Path_971" data-name="Path 971" d="M517.409,248.621a25.745,25.745,0,0,1-1.016,2.558,20.2,20.2,0,0,1-7.963,8.526l-1.9-1.971a17.024,17.024,0,0,0,4.321-3.164,18.987,18.987,0,0,0,5.282-14.044v-1.085h2.723s-.043.638-.07,1.086c-.044.7-.057,1.866-.045,1.923a21.314,21.314,0,0,0,.691,4.623q1.872,6,8.958,10.975l-2.253,1.725c-1.111-.918-2.057-1.725-2.826-2.436a22.2,22.2,0,0,1-5.906-8.715Z" transform="translate(-454.643 -239.078)" fill="#1a1311"/>
        </g>
      </g>
    </g>
  </g>
</svg>
